#!OML:ASF F:\VICON\USERDATA\INSTALL\rory3\rory3.ASF
:FULLY-SPECIFIED
:DEGREES
44
root 0.45254564929992186 18.677600665021288 13.08107965454694 2.140040469058749 3.4247735925876253 -3.749970763940709
lfemur -23.642990237837278 -1.2335172436616866 -18.656254710797118
ltibia 23.99419130675212
lfoot 2.291330998755965 -7.316758548428316
ltoes -8.667543922180162
rfemur -7.813549661892306 1.5339273021019155 29.40538173713848
rtibia 41.293007317487586
rfoot -3.9130461773748766 -0.8785349749150546
rtoes 4.473153050462388
lowerback 11.280262355798314 0.498873988148218 4.1452560481428895
upperback -1.7752850689995257 1.2413120574111134 1.7364968423943496
thorax -6.93814119208238 0.45800879979825415 -0.6077862573425319
lowerneck -17.770666063149587 -2.9368090683912405 -3.720464182412289
upperneck 19.152218466365188 -3.3313773726358367 1.8122569177097558
head 8.913921998172867 -1.5733615586082124 0.641199838223678
lclavicle -2.2673604777174477e-15 6.807528439473976e-16
lhumerus -50.68623961609647 -0.28311063125620706 88.84732166181884
lradius 61.66007887047897
lwrist 16.27676005654466
lhand -24.849654026991512 13.039959558880856
lfingers 7.125019999999999
lthumb 1.7379758168383144 43.16149414730065
rclavicle -2.2601823980926274e-15 6.857964608184872e-16
rhumerus -34.59217115230387 1.8431355890933565 -88.80466571055051
rradius 71.9723893188457
rwrist -0.8245029065044509
rhand -15.877609694240515 30.584431896111553
rfingers 7.125019999999999
rthumb 9.612328944248443 1.4416670187618357
45
root 0.47599816812957996 18.531568135520338 14.129158496188289 1.3558614095918484 4.293219093883636 -2.499724984073424
lfemur -21.01134709469903 -2.0066298823487227 -20.63871435048734
ltibia 25.349424832864475
lfoot -2.4250318395513957 -5.3780422466725835
ltoes -7.264451129120219
rfemur -9.702495475040744 0.404033937176032 27.932381620694027
rtibia 49.3007253756297
rfoot 1.8946630701611387 0.2548209520771296
rtoes 8.738465098094878
lowerback 12.103804793533158 0.3607990765943545 2.9230931985954305
upperback -1.6380308968840729 0.8496376576527391 1.339489029172182
thorax -7.0755485643821086 0.26249615212247684 -0.09071860765041562
lowerneck -17.686663096560192 -2.930416129997866 -3.8051874875166556
upperneck 18.772090203497974 -3.3253256976600944 1.9134563336640176
head 8.782934695428105 -1.5498759449579542 0.7150396380784896
lclavicle -2.268598546188288e-15 6.798870495178011e-16
lhumerus -49.76318722505684 -0.2813546803772118 88.69226927926873
lradius 61.8108711960077
lwrist 15.492722986644951
lhand -24.957780256462556 12.99026520163349
lfingers 7.125019999999999
lthumb 1.6283104385225595 43.162446881104216
rclavicle -2.259775447892831e-15 6.860818450772796e-16
rhumerus -35.277912651135914 0.9407615423459159 -88.44441930808273
rradius 71.1687319051463
rwrist -0.3795090986438485
rhand -16.11017352743305 30.48355862461625
rfingers 7.125019999999999
rthumb 9.52623172782512 1.096583524453483
46
root 0.4672868612253894 18.37301808752522 15.216759893287445 0.2356553733700789 4.742589004759654 -1.8193614117914803
lfemur -18.098295842425344 -2.59680025343681 -21.830007570561186
ltibia 26.383389863614216
lfoot -6.375272328944954 -2.788457167071205
ltoes -3.310073175004689
rfemur -12.211304985969411 -0.25909355266713296 26.865480084407714
rtibia 57.69340745354123
rfoot 9.54423916792742 0.5423867065715147
rtoes 13.929472761817525
lowerback 13.106766374064712 0.28585272901946085 1.9356138196157613
upperback -1.271643240709024 0.6633979000513125 1.2081612262444064
thorax -7.242850322721991 0.2036805822830482 0.5201440122975944
lowerneck -17.708718181139034 -2.925407788698546 -3.8189112821354265
upperneck 18.533494899083745 -3.3122266900411574 1.9114214448962845
head 8.7115708123045 -1.541281989022102 0.7336162536674302
lclavicle -2.2662812852742676e-15 6.815051882270605e-16
lhumerus -47.96360249413402 -1.0591934569604025 89.0064935161249
lradius 62.18693036436456
lwrist 15.59133023820479
lhand -25.14524559547977 12.819961112976442
lfingers 7.125019999999999
lthumb 1.3925446971747726 43.16900907350216
rclavicle -2.2615312953155697e-15 6.848508799267336e-16
rhumerus -35.67491092522454 -0.10223777755679553 -88.19033324763579
rradius 70.24024022948821
rwrist -0.391631296063383
rhand -16.4023028561129 30.427560137063388
rfingers 7.125019999999999
rthumb 9.387661779586864 1.0567534158551921
47
root 0.42674538395285855 18.253362898735137 16.154320857380412 -0.8798723030868199 1.7679585506601108 -2.1238522183470034
lfemur -15.985199137579382 -1.1570722033453955 -21.58944738939225
ltibia 29.445577079256505
lfoot -8.95513459971903 -0.6595152262960045
ltoes 0.5007723557769284
rfemur -15.314748189336285 1.8964868322680188 26.81300185694194
rtibia 65.43075409618005
rfoot 15.023595456955455 -1.5272880762927779
rtoes 19.551494500150014
lowerback 13.89269924700941 1.223894530774988 1.321888896174142
upperback -0.7231529102052812 1.8076537182405703 1.3003800093624878
thorax -7.283869743178548 0.8358191462674336 0.7771237262438939
lowerneck -17.737080119583503 -2.9767150275256484 -3.816020151275206
upperneck 18.551050364888575 -3.379544912362948 1.903414045395614
head 8.728174580908226 -1.563995006195896 0.7328194888429134
lclavicle -2.2661967901792598e-15 6.815589263912268e-16
lhumerus -46.162298986196376 -1.7537883700333907 89.08455931191244
lradius 62.10172527884868
lwrist 15.363059396043433
lhand -25.190988259777107 12.93765869187479
lfingers 7.125019999999999
lthumb 1.410337379395991 43.390353228796585
rclavicle -2.2611572712372876e-15 6.85113067297013e-16
rhumerus -36.208210923057884 -1.346691863694752 -88.05979481994325
rradius 69.38045325765019
rwrist -0.5328882341899108
rhand -16.54554929179355 30.37997306008235
rfingers 7.125019999999999
rthumb 9.317002314810003 1.0390474118418827
